<svg xmlns="http://www.w3.org/2000/svg" version="1.1" width="60" height="60">
<defs></defs>
<g id="chip" transform="translate(-370, -370)">
<circle cx="400" cy="400" r="30" fill="#ffffff" stroke="none" style="opacity: 0.5; " opacity="0.5"></circle><path fill="#ffffff" stroke="none" d="M400,400L427,400A27,27,0,0,0,423.38268590217984,386.5L400,400"></path><path fill="#008000" stroke="none" d="M400,400L423.38268590217984,386.5A27,27,0,0,0,413.5,376.61731409782016L400,400"></path><path fill="#ffffff" stroke="none" d="M400,400L413.5,376.61731409782016A27,27,0,0,0,400,373L400,400"></path><path fill="#008000" stroke="none" d="M400,400L400,373A27,27,0,0,0,386.5,376.61731409782016L400,400"></path><path fill="#ffffff" stroke="none" d="M400,400L386.5,376.61731409782016A27,27,0,0,0,376.61731409782016,386.5L400,400"></path><path fill="#008000" stroke="none" d="M400,400L376.61731409782016,386.5A27,27,0,0,0,373,400L400,400"></path><path fill="#ffffff" stroke="none" d="M400,400L373,400A27,27,0,0,0,376.61731409782016,413.5L400,400"></path><path fill="#008000" stroke="none" d="M400,400L376.61731409782016,413.5A27,27,0,0,0,386.5,423.38268590217984L400,400"></path><path fill="#ffffff" stroke="none" d="M400,400L386.5,423.38268590217984A27,27,0,0,0,400,427L400,400"></path><path fill="#008000" stroke="none" d="M400,400L400,427A27,27,0,0,0,413.5,423.38268590217984L400,400"></path><path fill="#ffffff" stroke="none" d="M400,400L413.5,423.38268590217984A27,27,0,0,0,423.38268590217984,413.5L400,400"></path><path fill="#008000" stroke="none" d="M400,400L423.38268590217984,413.5A27,27,0,0,0,427,400L400,400"></path><circle cx="400" cy="400" r="15" fill="#008000" stroke="none" style="opacity: 0.4; " opacity="0.4"></circle><circle cx="400" cy="400" r="12" fill="#ffffff" stroke="none"></circle><text x="400" y="405" text-anchor="middle" style="text-anchor: middle; font: normal normal normal 10px/normal Arial; font-size: 14px; " font="10px &quot;Arial&quot;" stroke="none" fill="#008000" font-size="14px"><tspan>1</tspan></text>
</g>
</svg>